<?xml version="1.0" standalone="no"?>
<!DOCTYPE svg PUBLIC "-//W3C//DTD SVG 20010904//EN"
 "http://www.w3.org/TR/2001/REC-SVG-20010904/DTD/svg10.dtd">
<svg version="1.0" xmlns="http://www.w3.org/2000/svg"
 width="2065.000000pt" height="2050.000000pt" viewBox="0 0 2065.000000 2050.000000"
 preserveAspectRatio="xMidYMid meet">

<g transform="translate(0.000000,2050.000000) scale(0.100000,-0.100000)"
fill="#000000" stroke="none">
<path d="M8851 15033 c-514 -1418 -671 -1832 -1829 -4823 l-408 -1055 1363 -3
c822 -1 1363 -6 1363 -11 0 -5 -544 -1269 -1210 -2808 l-1209 -2798 55 -28
c31 -16 57 -27 59 -25 1 2 1619 1873 3595 4158 l3592 4155 -1597 3 c-1028 1
-1595 6 -1593 12 2 5 754 1047 1671 2316 918 1268 1667 2308 1665 2310 -3 2
-1129 6 -2504 10 l-2499 5 -514 -1418z"/>
</g>
</svg>
